<svg width="157" height="25" viewBox="0 0 157 25" fill="none" xmlns="http://www.w3.org/2000/svg">
<path fill-rule="evenodd" clip-rule="evenodd" d="M46.9129 23.3636C47.4438 23.3636 47.8455 23.2763 47.8455 22.5096C47.8455 21.7428 47.4438 21.6553 46.9129 21.6553H46.0569V23.3585L46.9129 23.3636ZM46.9226 21.3414C47.7737 21.3414 48.1707 21.5884 48.1707 22.5096C48.1707 23.4305 47.7737 23.6775 46.9129 23.6775H46.0569V25H45.7317V21.3414H46.9226Z" fill="white"/>
<path fill-rule="evenodd" clip-rule="evenodd" d="M56.7073 24.6847V25H54.2683V21.3414H56.6804V21.6565H54.6345V22.9433H56.4113V23.2482H54.6345V24.6847H56.7073Z" fill="white"/>
<path fill-rule="evenodd" clip-rule="evenodd" d="M64.2396 23.2325C64.8645 23.2325 65.3389 23.1811 65.3389 22.4441C65.3389 21.7176 64.8645 21.6506 64.2396 21.6506H63.1984V23.2274L64.2396 23.2325ZM65.4025 25L64.552 23.5365C64.4538 23.5469 64.3497 23.5469 64.2397 23.5469H63.1984V25H62.8049V21.3414H64.2513C65.3274 21.3414 65.7381 21.5991 65.7381 22.4441C65.7381 23.0831 65.5066 23.382 64.9454 23.4954L65.8537 25H65.4025Z" fill="white"/>
<path fill-rule="evenodd" clip-rule="evenodd" d="M71.1078 21.6565V23.0157H72.8941V23.3309H71.1078V25H70.7317V21.3414H73.1707V21.6565H71.1078Z" fill="white"/>
<path fill-rule="evenodd" clip-rule="evenodd" d="M79.2683 23.1682V21.3414H79.6559V23.1682C79.6559 24.2227 79.8953 24.6921 80.7841 24.6921C81.6788 24.6921 81.9182 24.2227 81.9182 23.1682V21.3414H82.3171V23.1682C82.3171 24.3541 81.9979 25 80.7898 25C79.576 25 79.2683 24.3541 79.2683 23.1682" fill="white"/>
<path fill-rule="evenodd" clip-rule="evenodd" d="M91.4544 24.9897H91.1486L91.1714 21.6866L90.0577 25H89.7475L88.6749 21.6713L88.6932 24.9897H88.4147V21.3414H88.8849L89.9301 24.6135L91.0072 21.3414H91.4635L91.4544 24.9897Z" fill="white"/>
<path fill-rule="evenodd" clip-rule="evenodd" d="M100 24.6847V25H97.561V21.3414H99.973V21.6565H97.9273V22.9433H99.704V23.2482H97.9273V24.6847H100Z" fill="white"/>
<path fill-rule="evenodd" clip-rule="evenodd" d="M107.532 23.2325C108.157 23.2325 108.632 23.1811 108.632 22.4441C108.632 21.7176 108.157 21.6506 107.532 21.6506H106.491V23.2274L107.532 23.2325ZM108.695 25L107.845 23.5365C107.746 23.5469 107.642 23.5469 107.532 23.5469H106.491V25H106.098V21.3414H107.544C108.62 21.3414 109.031 21.5991 109.031 22.4441C109.031 23.0831 108.799 23.382 108.238 23.4954L109.146 25H108.695Z" fill="white"/>
<path fill-rule="evenodd" clip-rule="evenodd" d="M115.236 20.122H115.854L115.156 20.729H114.666L115.236 20.122ZM114.634 24.3902H115.18V20.9795H114.634V24.3902Z" fill="white"/>
<path fill-rule="evenodd" clip-rule="evenodd" d="M122.951 23.7028L122.246 21.7445L121.541 23.7028H122.951ZM123.061 24.013H121.431L121.076 25H120.732L122.091 21.3414H122.426L123.78 25H123.416L123.061 24.013Z" fill="white"/>
<path fill-rule="evenodd" clip-rule="evenodd" d="M129.652 23.8708C129.652 24.3836 130.036 24.6943 130.776 24.6992C131.601 24.709 131.91 24.4231 131.91 24.0483C131.91 22.8848 129.371 23.7032 129.371 22.2587C129.371 21.7016 129.784 21.3318 130.764 21.3416C131.773 21.3465 132.208 21.7509 132.208 22.3523H131.836C131.836 22.022 131.589 21.6474 130.776 21.6376C129.973 21.6326 129.767 21.9481 129.767 22.2686C129.767 23.368 132.317 22.5692 132.317 24.0385C132.317 24.6548 131.813 25.0048 130.787 24.9999C129.847 24.9949 129.268 24.6597 129.268 23.8708H129.652Z" fill="white"/>
<path fill-rule="evenodd" clip-rule="evenodd" d="M30.3516 17.0732C29.7666 17.0732 29.2683 16.6123 29.2683 16.0259V1.65703C29.2683 1.07057 29.7666 0.609741 30.3516 0.609741H36.7866C36.8733 0.609741 37.3931 0.609741 38.0649 0.777337C39.0181 1.00775 39.8633 1.46858 40.5133 2.0759C40.9899 2.53673 41.3799 3.10233 41.6399 3.75174C41.9215 4.46371 42.0732 5.28071 42.0732 6.18139C42.0732 8.17119 41.2066 9.67931 39.5816 10.58C38.4116 11.2293 36.8516 11.5435 34.9233 11.5435C34.3384 11.5435 33.84 11.0826 33.84 10.4962C33.84 9.90972 34.3384 9.44889 34.9233 9.44889C36.4615 9.44889 37.6749 9.21848 38.4983 8.75765C39.4515 8.23413 39.9065 7.41713 39.9065 6.18139C39.9065 5.34353 39.7332 4.65241 39.43 4.12864C39.1916 3.70978 38.8449 3.39556 38.4332 3.16515C37.6532 2.7253 36.8516 2.70432 36.7866 2.70432H31.435V16.0259C31.435 16.6123 30.9583 17.0732 30.3516 17.0732" fill="white"/>
<path fill-rule="evenodd" clip-rule="evenodd" d="M46.9513 17.0732C46.2927 17.0732 45.7317 16.6123 45.7317 16.0259V1.65703C45.7317 1.09155 46.2927 0.609741 46.9513 0.609741C47.6341 0.609741 48.1707 1.09155 48.1707 1.65703V16.0259C48.1707 16.6123 47.6341 17.0732 46.9513 17.0732" fill="white"/>
<path fill-rule="evenodd" clip-rule="evenodd" d="M65.4105 8.02783C66.0002 8.02783 66.4634 8.50518 66.4634 9.11267V14.0813C66.4634 14.3417 66.3581 14.6021 66.1896 14.7973C65.3894 15.6868 64.4631 16.4029 63.3892 16.902C62.2944 17.4225 61.0943 17.6829 59.8731 17.6829C58.6939 17.6829 57.5571 17.4442 56.5043 16.9669C55.4727 16.533 54.5462 15.8822 53.746 15.0577C52.946 14.2549 52.3355 13.3002 51.8934 12.2588C51.4301 11.1522 51.2195 10.0022 51.2195 8.83066C51.2195 7.63728 51.4511 6.48736 51.8934 5.40251C52.3355 4.36113 52.9671 3.40642 53.7671 2.60358C54.5673 1.77915 55.5147 1.14992 56.5464 0.694298C57.6202 0.238677 58.7572 0 59.9153 0C61.7049 0 63.3892 0.564029 64.821 1.60554C65.3053 1.95262 65.4105 2.62519 65.0737 3.12428C64.7368 3.60163 64.0841 3.7319 63.5998 3.38469C62.5261 2.58198 61.2628 2.16957 59.9153 2.16957C59.0309 2.16957 58.1677 2.3433 57.3464 2.71212C56.5675 3.0376 55.8517 3.53656 55.262 4.14405C54.6514 4.77328 54.1672 5.46758 53.8304 6.27041C53.4935 7.09485 53.325 7.94102 53.325 8.83066C53.325 9.72017 53.4935 10.5881 53.8304 11.3908C54.1672 12.1936 54.6303 12.9096 55.241 13.5171C56.4832 14.7973 58.1255 15.5134 59.8731 15.5134C60.7996 15.5134 61.7049 15.318 62.5261 14.9275C63.1998 14.6021 63.8314 14.168 64.3578 13.6257V10.2095" fill="white"/>
<path fill-rule="evenodd" clip-rule="evenodd" d="M86.7005 17.0732C86.1041 17.0732 85.596 16.5918 85.596 16.0266V4.87005L80.1627 11.924C79.964 12.196 79.6328 12.3427 79.2793 12.3427C78.926 12.3427 78.5946 12.196 78.3737 11.924L72.9404 4.87005V16.0266C72.9404 16.5918 72.4544 17.0732 71.836 17.0732C71.2396 17.0732 70.7317 16.5918 70.7317 16.0266V1.66739C70.7317 1.20687 71.0409 0.809253 71.5047 0.662736C71.9464 0.516219 72.4544 0.683702 72.7417 1.03951L79.2793 9.53776L85.8169 1.03951C86.1041 0.683702 86.59 0.516219 87.0538 0.662736C87.4955 0.809253 87.8049 1.20687 87.8049 1.66739V16.0266C87.8049 16.5918 87.3189 17.0732 86.7005 17.0732" fill="white"/>
<path fill-rule="evenodd" clip-rule="evenodd" d="M103.659 16.0245C103.659 16.6117 103.171 17.0732 102.551 17.0732H91.9612C91.363 17.0732 90.8536 16.6117 90.8536 16.0245V1.65837C90.8536 1.07116 91.363 0.609741 91.9612 0.609741H102.329C102.95 0.609741 103.437 1.07116 103.437 1.65837C103.437 2.24546 102.95 2.70687 102.329 2.70687H93.0689V7.76131H101.266C101.886 7.76131 102.374 8.24373 102.374 8.80994C102.374 9.39715 101.886 9.85856 101.266 9.85856H93.0689V14.9758H102.551C103.171 14.9758 103.659 15.4372 103.659 16.0245" fill="white"/>
<path fill-rule="evenodd" clip-rule="evenodd" d="M120.253 17.0732C119.926 17.0732 119.621 16.9266 119.403 16.6964L108.885 4.54086V16.0061C108.885 16.5919 108.406 17.0522 107.796 17.0522C107.186 17.0522 106.707 16.5919 106.707 16.0061V1.65353C106.707 1.21418 106.99 0.816748 107.426 0.670175C107.861 0.523726 108.34 0.649219 108.624 0.984031L119.164 13.1188V1.67449C119.164 1.08857 119.643 0.628262 120.253 0.628262C120.841 0.628262 121.341 1.08857 121.341 1.67449V16.0269C121.341 16.4663 121.037 16.843 120.623 17.0104C120.492 17.0522 120.362 17.0732 120.253 17.0732" fill="white"/>
<path fill-rule="evenodd" clip-rule="evenodd" d="M137.805 1.65703C137.805 2.24349 137.343 2.70432 136.755 2.70432H132.158V16.0259C132.158 16.6123 131.675 17.0732 131.108 17.0732C130.52 17.0732 130.058 16.6123 130.058 16.0259V2.70432H125.44C124.852 2.70432 124.39 2.24349 124.39 1.65703C124.39 1.07057 124.852 0.609741 125.44 0.609741H136.755C137.343 0.609741 137.805 1.07057 137.805 1.65703" fill="white"/>
<mask id="mask0_27_18" style="mask-type:alpha" maskUnits="userSpaceOnUse" x="139" y="0" width="18" height="18">
<path fill-rule="evenodd" clip-rule="evenodd" d="M139.068 0.124512H156.848V17.5954H139.068V0.124512Z" fill="white"/>
</mask>
<g mask="url(#mask0_27_18)">
<path fill-rule="evenodd" clip-rule="evenodd" d="M148.078 2.26806C147.164 2.26806 146.271 2.43971 145.423 2.78263C144.596 3.12568 143.877 3.59718 143.246 4.21886C142.615 4.81907 142.115 5.52651 141.788 6.31972C141.418 7.1128 141.244 7.97029 141.244 8.84926C141.244 9.7281 141.418 10.5641 141.766 11.3788C142.115 12.1719 142.593 12.8793 143.224 13.4795C144.509 14.7444 146.206 15.4517 148.012 15.4517C149.819 15.4517 151.494 14.7444 152.757 13.5009C153.366 12.9008 153.823 12.1934 154.171 11.4002C154.498 10.5856 154.672 9.7281 154.672 8.84926C154.672 7.09133 153.997 5.44075 152.778 4.21886C151.538 2.95403 149.862 2.26806 148.078 2.26806ZM148.012 17.5954C146.816 17.5954 145.64 17.3596 144.53 16.8879C143.464 16.4378 142.506 15.8161 141.679 15.0015C140.874 14.1869 140.221 13.2651 139.764 12.2148C139.307 11.143 139.068 10.0069 139.068 8.84927C139.068 7.6702 139.307 6.53407 139.786 5.4621C140.243 4.43321 140.896 3.48995 141.723 2.69687C142.55 1.88219 143.507 1.26064 144.574 0.810483C145.684 0.360326 146.859 0.124512 148.078 0.124512C150.45 0.124512 152.67 1.0463 154.323 2.71822C155.129 3.51142 155.738 4.45468 156.173 5.48358C156.63 6.55554 156.848 7.69167 156.848 8.84927C156.848 10.0282 156.63 11.1645 156.173 12.2148C155.738 13.2651 155.107 14.2083 154.302 15.0015C152.626 16.6736 150.406 17.5954 148.012 17.5954Z" fill="white"/>
</g>
<path fill-rule="evenodd" clip-rule="evenodd" d="M65.34 10.3658H62.0158C61.4333 10.3658 60.9756 9.82917 60.9756 9.14627C60.9756 8.46337 61.4333 7.92676 62.0158 7.92676H65.7768C66.0265 7.92676 66.2762 8.04877 66.4634 8.24378" fill="white"/>
<path fill-rule="evenodd" clip-rule="evenodd" d="M12.1951 3.65854C12.1951 5.67907 10.5571 7.31707 8.53659 7.31707C6.51606 7.31707 4.87805 5.67907 4.87805 3.65854C4.87805 1.63801 6.51606 0 8.53659 0C10.5571 0 12.1951 1.63801 12.1951 3.65854" fill="#FABE00"/>
<path fill-rule="evenodd" clip-rule="evenodd" d="M8.53658 12.8049C8.53658 15.1622 6.6256 17.0732 4.26829 17.0732C1.91099 17.0732 0 15.1622 0 12.8049C0 10.4476 1.91099 8.53662 4.26829 8.53662C6.6256 8.53662 8.53658 10.4476 8.53658 12.8049" fill="#00B4E0"/>
<path fill-rule="evenodd" clip-rule="evenodd" d="M21.9512 12.1951C21.9512 15.2259 19.4942 17.6829 16.4634 17.6829C13.4326 17.6829 10.9756 15.2259 10.9756 12.1951C10.9756 9.1643 13.4326 6.70728 16.4634 6.70728C19.4942 6.70728 21.9512 9.1643 21.9512 12.1951" fill="#DBA3C9"/>
</svg>
