<svg width="132" height="20" viewBox="0 0 132 20" fill="none" xmlns="http://www.w3.org/2000/svg">
<g clip-path="url(#clip0_33_30)">
<path d="M12.3609 13.6542C12.3609 14.2256 12.2406 14.797 12 15.4286C11.7594 16.0602 11.3684 16.6316 10.797 17.173C10.2556 17.7143 9.53383 18.1354 8.69173 18.4963C7.84962 18.8572 6.88722 19.0076 5.86466 19.0076C4.84211 19.0076 3.93985 18.8572 3.12782 18.5264C1.62406 17.9249 0.631579 16.8722 0.180451 15.3685C0.0601504 14.9474 0 14.5865 0 14.2256C0 13.0828 0.330827 12.0301 1.02256 11.0376L1.20301 11.188C0.781955 11.97 0.571429 12.6918 0.571429 13.4136C0.571429 14.2858 0.781955 15.0677 1.23308 15.7594C1.68421 16.4512 2.25564 16.9625 3.00752 17.3534C3.7594 17.7444 4.51128 17.9249 5.29323 17.9249C6.07519 17.9249 6.73684 17.8046 7.24812 17.564C7.78947 17.3234 8.18045 16.9925 8.42105 16.5715C8.66165 16.1504 8.78196 15.7294 8.78196 15.2482C8.78196 14.767 8.63158 14.3158 8.30075 13.8647C7.96993 13.3835 7.48872 12.9625 6.85714 12.6316L3.66917 10.767C2.04511 9.80456 1.23308 8.60155 1.23308 7.09779C1.23308 5.74441 1.71429 4.72185 2.64662 4.00005C3.42857 3.30832 4.51128 3.00757 5.83459 3.00757C6.70677 3.00757 7.78947 3.06772 9.11278 3.18802H10.6466L10.2256 6.37599H10.0451C10.0451 5.65418 9.77444 5.08276 9.20301 4.63163C8.63158 4.1805 7.93985 3.96997 7.06767 3.96997C6.19549 3.96997 5.53383 4.12035 5.05263 4.4211C4.57143 4.72185 4.33083 5.11283 4.30075 5.62411C4.27068 5.95494 4.3609 6.25569 4.57143 6.49629C4.75188 6.70682 4.96241 6.85719 5.14286 6.97749C5.35338 7.09779 5.50376 7.18802 5.68421 7.27824C5.83459 7.36847 5.95489 7.42862 6.01504 7.4587L9.68421 9.56396C10.4962 10.0151 11.1579 10.5865 11.609 11.2782C12.0902 12 12.3609 12.8121 12.3609 13.6542Z" fill="white"/>
<path d="M13.6541 16.7819C13.9849 16.7819 14.2857 16.6616 14.5263 16.421C14.7669 16.1804 14.8872 15.8796 14.9173 15.5488V4.72175C14.9173 4.3007 14.7368 3.96987 14.3759 3.72927C14.1654 3.57889 13.9248 3.48867 13.6541 3.48867H13.4135V3.27814H22.0752C22.6466 3.27814 23.1278 3.21799 23.5789 3.12776C24.03 3.03754 24.3007 2.97739 24.421 2.91724V6.94731H24.2406V6.79694C24.2406 5.7443 23.8496 5.0225 23.0977 4.60145C22.7368 4.39092 22.2857 4.27062 21.7744 4.27062H18.9473V9.71423H21.0526C21.6842 9.71423 22.1955 9.5037 22.5864 9.11272C22.9774 8.72175 23.1879 8.21047 23.1879 7.57889V7.51874H23.3684V12.9323H23.1579V12.842C23.1579 12.2405 22.9473 11.7293 22.5564 11.3383C22.1654 10.9473 21.6541 10.7368 21.0526 10.7368H18.9173V15.9999H21.3233C22.2857 15.9999 23.1278 15.6992 23.8496 15.0676C24.5714 14.436 25.0827 13.5639 25.3834 12.4811H25.5639L24.812 17.0225H13.3834V16.842H13.6541V16.7819Z" fill="white"/>
<path d="M34.0451 16.782C34.3158 16.782 34.5263 16.6316 34.7068 16.3609C34.797 16.2406 34.8271 16.0902 34.8271 15.9699C34.8271 15.8496 34.797 15.6992 34.7068 15.5489L32.1203 11.609L29.3534 15.5489C29.1429 15.9399 29.203 16.2707 29.5338 16.5714C29.6842 16.6917 29.8647 16.782 30.015 16.782H30.2556V16.9624H25.203V16.782H25.4737C26.1654 16.782 26.8271 16.4211 27.3985 15.6692L31.2782 10.3459L27.5489 4.63158C27.3383 4.33083 27.0376 4.06015 26.6767 3.81955C26.3158 3.60903 25.9549 3.48872 25.5639 3.48872H25.2932V3.2782H33.1429V3.48872H32.9023C32.6015 3.48872 32.391 3.6391 32.2406 3.90978C32.1504 4.03008 32.0902 4.18045 32.0902 4.30075C32.0902 4.42106 32.1203 4.57143 32.2105 4.69173L34.4962 8.15038L36.6917 4.69173C36.9023 4.30075 36.8421 3.96993 36.5113 3.66918C36.3609 3.54887 36.2105 3.48872 36.0301 3.48872H35.7895L35.7594 3.2782H40.812V3.48872H40.6015C39.8496 3.48872 39.188 3.8797 38.6767 4.63158L35.3985 9.50376L39.4286 15.6391C39.6391 15.9399 39.9098 16.2105 40.2707 16.4511C40.6316 16.6617 40.9925 16.782 41.3835 16.782H41.6541V16.9624H33.7444V16.782H34.0451V16.782Z" fill="white"/>
<path d="M53.5939 13.6541C53.5939 14.2255 53.4736 14.797 53.233 15.4285C52.9924 16.0601 52.6014 16.6315 52.03 17.1729C51.4887 17.7142 50.7669 18.1353 49.9248 18.4962C49.0827 18.8571 48.1202 19.0075 47.0977 19.0075C46.0751 19.0075 45.1729 18.8571 44.3608 18.5263C42.8571 17.9248 41.8646 16.8721 41.4135 15.3684C41.2932 14.9774 41.233 14.5864 41.233 14.2255C41.233 13.0827 41.5639 12.03 42.2556 11.0376L42.436 11.1879C42.015 11.9699 41.8045 12.6917 41.8045 13.4135C41.8045 14.2857 42.015 15.0676 42.4661 15.7594C42.9172 16.4511 43.4887 16.9624 44.2406 17.3533C44.9924 17.7443 45.7443 17.9248 46.5263 17.9248C47.3082 17.9248 47.9699 17.8045 48.4811 17.5639C49.0225 17.3233 49.4135 16.9924 49.6541 16.5714C49.8947 16.1503 50.015 15.7293 50.015 15.2481C50.015 14.7669 49.8646 14.3157 49.5338 13.8646C49.203 13.3834 48.7217 12.9624 48.0902 12.6315L44.9022 10.7669C43.2781 9.80447 42.4661 8.60146 42.4661 7.0977C42.4661 5.74432 42.9473 4.72176 43.8796 3.99996C44.6616 3.39845 45.7142 3.06763 47.0676 3.06763C47.9398 3.06763 49.0225 3.12778 50.3458 3.24808H51.8796L51.4586 6.43605H51.2781C51.2781 5.71424 51.0075 5.14282 50.436 4.69169C49.8646 4.24056 49.1729 4.03003 48.3007 4.03003C47.4285 4.03003 46.7669 4.18041 46.2857 4.48116C45.8045 4.78191 45.5639 5.17289 45.5338 5.68417C45.5037 6.015 45.5939 6.31575 45.8045 6.55635C45.9849 6.76688 46.1954 6.91725 46.3759 7.03755C46.5864 7.15785 46.7368 7.24808 46.9172 7.3383C47.0676 7.42853 47.1879 7.48868 47.2481 7.51876L50.9172 9.62402C51.7293 10.0751 52.3909 10.6466 52.8421 11.3383C53.3233 12 53.5939 12.812 53.5939 13.6541Z" fill="white"/>
<path d="M64.1504 16.782C64.4812 16.782 64.7819 16.6617 65.0225 16.4211C65.2631 16.1805 65.3834 15.9098 65.4135 15.5489V10.6166H60.1504V15.5489C60.1504 16.0301 60.3609 16.391 60.7819 16.6316C60.9925 16.7219 61.1729 16.782 61.4135 16.782H61.6541V16.9625H54.6466V16.782H54.8872C55.218 16.782 55.5188 16.6617 55.7594 16.4211C56 16.1805 56.1203 15.8797 56.1504 15.5489V4.69178C56.1504 4.36095 56 4.0602 55.7594 3.8196C55.5188 3.579 55.218 3.4587 54.8872 3.4587H54.6466V3.24817H61.6541V3.4587H61.4135C61.0827 3.4587 60.7819 3.579 60.5413 3.8196C60.3007 4.0602 60.1804 4.33088 60.1504 4.69178V9.62411H65.4135V4.69178C65.4135 4.36095 65.2631 4.0602 65.0225 3.8196C64.7819 3.579 64.4812 3.4587 64.1504 3.4587H63.9098V3.24817H70.9173V3.4587H70.6767C70.1955 3.4587 69.8346 3.66922 69.594 4.0602C69.5037 4.24065 69.4436 4.45118 69.4135 4.69178V15.5188C69.4135 15.8497 69.5639 16.1504 69.8045 16.391C70.0451 16.6316 70.3458 16.7519 70.6767 16.7519H70.9173V16.9324H63.9098V16.7519H64.1504V16.782Z" fill="white"/>
<path d="M79.8497 3.00757C81.5339 3.00757 82.9775 3.27825 84.2106 3.84967C85.4136 4.4211 86.376 5.23313 87.0075 6.31584C87.6391 7.39855 87.97 8.6617 87.97 10.1354C87.97 12.361 87.2481 14.1053 85.8045 15.3685C84.3609 16.6316 82.376 17.2632 79.8497 17.2632C77.3233 17.2632 75.3384 16.6316 73.8948 15.3685C72.4512 14.1053 71.7294 12.361 71.7294 10.1354C71.7294 7.90982 72.4512 6.16546 73.8948 4.9023C75.3384 3.63915 77.3233 3.00757 79.8497 3.00757ZM77.0827 14.6467C77.7444 15.7294 78.6767 16.2707 79.8797 16.2707C81.0827 16.2707 82.0151 15.7294 82.6767 14.6467C83.3384 13.564 83.6692 12.0602 83.6692 10.1354C83.6692 8.21058 83.3384 6.70682 82.6767 5.62411C82.0151 4.5414 81.0827 4.00005 79.8797 4.00005C78.6767 4.00005 77.7444 4.5414 77.0827 5.62411C76.4211 6.70682 76.0903 8.21058 76.0903 10.1354C76.0602 12.0602 76.391 13.564 77.0827 14.6467Z" fill="white"/>
<path d="M101.805 7.27824C101.805 7.87975 101.684 8.45118 101.444 9.02261C101.203 9.59403 100.842 10.0452 100.391 10.4061C99.579 11.0677 98.7068 11.3985 97.7745 11.3985C96.8421 11.3985 95.9399 11.0978 95.1279 10.4963V10.3158C95.6091 10.2256 95.9399 10.1053 96.1805 9.95494C96.4211 9.77448 96.6015 9.62411 96.7519 9.47373C97.0827 9.11283 97.2933 8.72185 97.4136 8.24065C97.5339 7.75945 97.594 7.42862 97.594 7.24817C97.594 6.22561 97.3835 5.47373 96.9324 4.99253C96.4812 4.51133 95.9098 4.27073 95.1579 4.27073H94.4662V15.5489C94.4662 15.8797 94.6166 16.1805 94.8572 16.4211C95.0978 16.6617 95.3985 16.782 95.7294 16.782H95.97V16.9625H88.9624V16.782H89.203C89.6843 16.782 90.0452 16.5715 90.2858 16.1805C90.4061 15.97 90.4662 15.7895 90.4662 15.5489V4.60155C90.4662 4.3008 90.3459 4.03012 90.0752 3.78952C89.8346 3.579 89.5339 3.4587 89.203 3.4587H88.9624L88.9324 3.24817H96.391C98.1654 3.24817 99.5489 3.60907 100.481 4.36095C101.353 5.05268 101.805 6.01509 101.805 7.27824Z" fill="white"/>
<path d="M117.564 16.782H117.835V16.9624H109.925V16.782H110.165C110.436 16.782 110.647 16.6316 110.827 16.3609C110.917 16.2406 110.947 16.0902 110.947 15.9699C110.947 15.8496 110.917 15.6992 110.827 15.5489L108.301 11.6692L104.481 16.9624C103.007 18.9774 101.383 20 99.609 20C99.2782 20 98.9173 19.9699 98.5864 19.9098V19.6992C99.5789 19.5789 100.391 19.2782 100.962 18.797C101.263 18.5263 101.534 18.2857 101.744 18.015C101.955 17.7444 102.226 17.4135 102.586 16.9624L107.429 10.3459L103.699 4.63158C103.489 4.33083 103.188 4.06015 102.827 3.81955C102.466 3.60902 102.105 3.48872 101.714 3.48872H101.444V3.2782H109.293V3.48872H109.053C108.752 3.48872 108.541 3.6391 108.391 3.90977C108.301 4.03007 108.241 4.18045 108.241 4.30075C108.241 4.42105 108.301 4.57143 108.391 4.69173L110.586 8.06015L113.744 3.2782C114.346 2.37594 115.098 1.59398 116 0.932331C116.872 0.300752 117.804 0 118.797 0C118.977 0 119.128 0 119.278 0.0300752V0.210526C118.526 0.210526 117.804 0.571429 117.173 1.29323C116.692 1.83459 116.15 2.49624 115.639 3.2782L111.489 9.47368L115.579 15.6391C115.88 16.0902 116.271 16.4211 116.782 16.6015C117.023 16.7218 117.293 16.782 117.564 16.782Z" fill="#B88B52"/>
<path d="M119.278 5.23303C119.278 4.48115 118.887 4.09017 118.135 4.09017C118.075 4.09017 117.955 4.09017 117.774 4.12024L117.744 3.93979C118.827 3.84957 120.15 3.69919 121.714 3.42851C123.278 3.15784 124.241 3.00746 124.632 2.97739C125.023 2.94731 125.383 2.91724 125.744 2.91724C126.797 2.91724 127.609 3.00746 128.211 3.18791C128.812 3.36836 129.353 3.60897 129.805 3.90972C130.256 4.21047 130.617 4.63152 130.887 5.1428C131.188 5.71423 131.338 6.31573 131.338 6.97739C131.338 7.63904 131.248 8.18039 131.098 8.69167C130.917 9.17288 130.677 9.624 130.376 9.95483C129.444 11.0375 128.241 11.5488 126.767 11.5488C126.256 11.5488 125.805 11.4586 125.383 11.3082C124.602 11.0075 124.12 10.5263 123.91 9.77438L124.09 9.65408C124.271 9.92475 124.571 10.0451 124.992 10.0451C125.624 10.0451 126.195 9.65408 126.707 8.9022C127.008 8.421 127.158 7.78942 127.158 6.97739C127.158 5.86461 126.887 5.05257 126.316 4.51122C125.895 4.12024 125.383 3.90972 124.722 3.90972C124.571 3.90972 124.391 3.90972 124.241 3.93979L123.278 4.09017V15.4586C123.278 15.7894 123.429 16.0902 123.669 16.3308C123.91 16.5714 124.211 16.6917 124.541 16.6917H124.782V16.8721H117.774V16.6917H118.015C118.346 16.6917 118.647 16.5714 118.887 16.3308C119.128 16.0902 119.248 15.7894 119.278 15.4586V5.23303V5.23303Z" fill="#B88B52"/>
</g>
<defs>
<clipPath id="clip0_33_30">
<rect width="131.368" height="20" fill="white"/>
</clipPath>
</defs>
</svg>
